<svg xmlns="http://www.w3.org/2000/svg" fill="none" viewBox="0 0 978.1645746164575 649.096" style="max-height: 500px" width="978.1645746164575" height="649.096">
<ellipse fill="#F195D5" ry="53" rx="55.5" cy="570" cx="796.5"/>
<rect fill="#FFAB57" height="169" width="57" y="43" x="70"/>
<rect fill="#FF7A5C" height="46" width="159" y="182" x="749"/>
<line stroke-width="2" stroke="black" y2="128" x2="18" y1="4.37114e-08" x1="18"/>
<line stroke-width="2" stroke="black" y2="128" x2="59" y1="4.37114e-08" x1="59"/>
<line stroke-width="2" stroke="black" y2="128" x2="101" y1="4.37114e-08" x1="101"/>
<line stroke-width="2" stroke="black" y2="61" x2="115" y1="61"/>
<line stroke-width="2" stroke="black" y2="20" x2="115" y1="20"/>
<line stroke-width="2" stroke="black" y2="103" x2="115" y1="103"/>
<path fill="#92D39C" d="M879 511L976.861 646.75H781.139L879 511Z"/>
<path fill="#69D2E7" d="M257.386 289.599L192.908 404.477L125.66 288L257.386 289.599Z"/>
<line stroke-width="5" stroke="black" y2="618" x2="922.5" y1="511" x1="922.5"/>
<line stroke-width="5" stroke="black" y2="560.5" x2="970" y1="560.5" x1="874"/>
<circle fill="#A388EE" r="50" cy="561" cx="100"/>
<circle fill="black" r="4" cy="261" cx="774"/>
<circle fill="black" r="4" cy="261" cx="745"/>
<circle fill="black" r="4" cy="238" cx="745"/>
<circle fill="black" r="4" cy="238" cx="774"/>
<circle fill="black" r="4" cy="261" cx="831"/>
<circle fill="black" r="4" cy="261" cx="802"/>
<circle fill="black" r="4" cy="238" cx="802"/>
<circle fill="black" r="4" cy="238" cx="831"/>
<circle fill="black" r="4" cy="216" cx="831"/>
<circle fill="black" r="4" cy="216" cx="802"/>
<circle fill="black" r="4" cy="193" cx="802"/>
<circle fill="black" r="4" cy="193" cx="831"/>
<circle fill="black" r="4" cy="216" cx="774"/>
<circle fill="black" r="4" cy="216" cx="745"/>
<circle fill="black" r="4" cy="193" cx="745"/>
<circle fill="black" r="4" cy="193" cx="774"/>
<circle fill="black" r="4" cy="641" cx="43"/>
<circle fill="black" r="4" cy="641" cx="14"/>
<circle fill="black" r="4" cy="618" cx="14"/>
<circle fill="black" r="4" cy="618" cx="43"/>
<circle fill="black" r="4" cy="641" cx="100"/>
<circle fill="black" r="4" cy="641" cx="71"/>
<circle fill="black" r="4" cy="618" cx="71"/>
<circle fill="black" r="4" cy="618" cx="100"/>
<circle fill="black" r="4" cy="596" cx="100"/>
<circle fill="black" r="4" cy="596" cx="71"/>
<circle fill="black" r="4" cy="573" cx="71"/>
<circle fill="black" r="4" cy="573" cx="100"/>
<circle fill="black" r="4" cy="596" cx="43"/>
<circle fill="black" r="4" cy="596" cx="14"/>
<circle fill="black" r="4" cy="573" cx="14"/>
<circle fill="black" r="4" cy="573" cx="43"/>
<rect fill="black" height="10" width="10" y="506" x="95"/>
<rect fill="black" height="10" width="10" y="506" x="156"/>
<rect fill="black" height="10" width="10" y="506" x="34"/>
<line stroke-width="2" stroke="black" y2="510" x2="161" y1="510" x1="105"/>
<line stroke-width="2" stroke="black" y2="510" x2="95" y1="510" x1="39"/>
<path stroke-width="2" stroke="black" d="M223.5 317.519V317.668V317.815V317.962V318.108V318.252V318.396V318.539V318.68V318.821V318.961V319.099V319.237V319.374V319.509V319.644V319.778V319.911V320.043V320.174V320.304V320.433V320.561V320.688V320.815V320.94V321.064V321.188V321.311V321.433V321.553V321.674V321.793V321.911V322.028V322.145V322.261V322.375V322.489V322.603V322.715V322.826V322.937V323.047V323.156V323.264V323.372V323.478V323.584V323.689V323.794V323.897V324V324.102V324.203V324.303V324.403V324.502V324.6V324.698V324.795V324.891V324.986V325.081V325.175V325.268V325.36V325.452V325.543V325.634V325.723V325.812V325.901V325.989V326.076V326.162V326.248V326.333V326.418V326.502V326.585V326.668V326.75V326.831V326.912V326.993V327.072V327.151V327.23V327.308V327.385V327.462V327.538V327.614V327.689V327.764V327.838V327.911V327.984V328.057V328.129V328.2V328.271V328.342V328.412V328.481V328.55V328.619V328.687V328.754V328.821V328.888V328.954V329.02V329.085V329.15V329.215V329.279V329.342V329.405V329.468V329.531V329.593V329.654V329.715V329.776V329.836V329.896V329.956V330.015V330.074V330.133V330.191V330.249V330.307V330.364V330.421V330.478V330.534V330.59V330.645V330.701V330.756V330.811V330.865V330.919V330.973V331.027V331.08V331.134V331.187V331.239V331.292V331.344V331.396V331.447V331.499V331.55V331.601V331.652V331.703V331.753V331.804V331.854V331.904V331.954V332.003V332.053V332.102V332.151V332.2V332.249V332.298V332.346V332.395V332.443V332.491V332.539V332.587V332.635V332.683V332.731V332.779V332.826V332.874V332.921V332.968V333.016V333.063V333.11V333.157V333.205V333.252V333.299V333.346V333.393V333.44V333.487V333.534V333.581V333.628V333.675V333.723V333.77V333.817V333.864V333.911V333.959V334.006V334.054V334.101V334.149V334.196V334.244V334.292V334.34V334.388V334.436V334.484V334.532V334.581V334.629V334.678V334.727V334.776V334.825V334.874V334.924V334.973V335.023V335.073V335.123V335.174V335.224V335.275V335.326V335.377V335.428V335.479V335.531V335.583V335.635V335.688V335.74V335.793V335.846V335.9V335.954V336.007V336.062V336.116V336.171V336.226V336.281V336.337V336.393V336.449V336.506V336.563V336.62V336.678V336.735V336.794V336.852V336.911V336.97V337.03V337.09V337.151V337.211V337.272V337.334V337.396V337.458V337.521V337.584V337.648V337.712V337.776V337.841V337.906V337.972V338.038V338.105V338.172V338.239V338.308V338.376V338.445V338.514V338.584V338.655V338.726V338.797V338.869V338.942V339.015V339.088V339.162V339.237V339.312V339.388V339.464V339.541V339.618V339.696V339.774V339.853V339.933V340.013V340.094V340.176V340.258V340.34V340.424V340.508V340.592V340.677V340.763V340.85V340.937V341.024V341.113V341.202V341.292V341.382V341.473V341.565V341.657V341.751V341.844V341.939V342.034V342.13V342.227V342.325V342.423V342.522V342.621V342.722V342.823V342.925V343.028V343.131V343.235V343.34V343.446V343.553V343.66V343.768V343.877V343.987V344.098V344.209V344.322V344.435V344.549V344.664V344.779V344.896V345.013V345.131V345.25V345.37V345.491V345.613V345.736V345.859V345.984V346.109V346.235V346.363V346.491V346.62V346.75V346.881V347.013V347.145V347.279V347.414V347.55V347.686V347.824V347.962V348.102V348.243V348.384V348.527V348.671V348.815V348.961V349.107V349.255V349.404V349.554V349.705V349.856V350.009V350.163V350.318V350.475V350.632V350.79V350.949V351.11V351.271V351.434V351.598V351.763V351.929V352.096V352.264V352.434V352.604V352.776V352.949V353.123V353.298V353.474V353.652V353.83V354.01V354.191V354.374V354.557V354.742V354.928V355.115V355.303V355.493V355.683V355.875V356.069V356.263V356.459V356.656V356.854V357.054V357.254V357.456V357.66V357.864V358.07V358.278V358.486V358.696V358.907V359.12V359.333V359.549V359.765V359.983V360.202V360.423V360.645V360.868V361.092V361.318V361.546V361.775V362.005V362.236V362.469V362.704V362.939V363.176V363.415V363.655V363.897V364.139V364.384V364.63V364.877V365.125V365.376V365.627V365.88V366.135V366.391V366.649V366.908V367.168V367.43V367.694V367.959V368.226V368.494V368.763V369.035V369.307V369.582V369.857V370.135V370.414V370.694V370.977V371.26V371.546V371.832V372.121V372.411V372.703V372.996V373.291V373.587V373.886V374.185V374.487V374.79V375.01C192.205 374.477 167 348.941 167 317.519C167 286.096 192.205 260.543 223.5 260.009V260.185V260.419V260.651V260.881V261.111V261.339V261.566V261.792V262.017V262.24V262.462V262.683V262.903V263.122V263.339V263.555V263.77V263.984V264.197V264.408V264.619V264.828V265.036V265.243V265.449V265.653V265.857V266.059V266.26V266.46V266.659V266.857V267.053V267.249V267.444V267.637V267.829V268.02V268.211V268.4V268.588V268.774V268.96V269.145V269.329V269.511V269.693V269.874V270.053V270.232V270.409V270.586V270.761V270.935V271.109V271.281V271.453V271.623V271.792V271.961V272.128V272.295V272.46V272.625V272.788V272.951V273.113V273.273V273.433V273.592V273.75V273.907V274.063V274.218V274.372V274.525V274.677V274.829V274.979V275.129V275.278V275.426V275.573V275.719V275.864V276.008V276.152V276.295V276.436V276.577V276.717V276.857V276.995V277.133V277.269V277.405V277.541V277.675V277.808V277.941V278.073V278.204V278.334V278.464V278.593V278.721V278.848V278.974V279.1V279.225V279.349V279.473V279.595V279.717V279.838V279.959V280.079V280.198V280.316V280.434V280.551V280.667V280.782V280.897V281.011V281.125V281.237V281.349V281.461V281.572V281.682V281.791V281.9V282.008V282.116V282.222V282.329V282.434V282.539V282.644V282.747V282.85V282.953V283.055V283.156V283.257V283.357V283.457V283.556V283.654V283.752V283.849V283.946V284.042V284.138V284.233V284.327V284.421V284.515V284.608V284.7V284.792V284.883V284.974V285.065V285.154V285.244V285.333V285.421V285.509V285.596V285.683V285.77V285.856V285.942V286.027V286.111V286.196V286.279V286.363V286.446V286.528V286.61V286.692V286.773V286.854V286.934V287.014V287.094V287.173V287.252V287.331V287.409V287.487V287.564V287.641V287.718V287.794V287.87V287.945V288.021V288.096V288.17V288.245V288.319V288.392V288.466V288.539V288.611V288.684V288.756V288.828V288.899V288.971V289.042V289.112V289.183V289.253V289.323V289.393V289.462V289.532V289.601V289.669V289.738V289.806V289.874V289.942V290.01V290.077V290.144V290.212V290.278V290.345V290.412V290.478V290.544V290.61V290.676V290.741V290.807V290.872V290.938V291.003V291.068V291.132V291.197V291.262V291.326V291.39V291.455V291.519V291.583V291.647V291.71V291.774V291.838V291.901V291.965V292.028V292.092V292.155V292.218V292.281V292.345V292.408V292.471V292.534V292.597V292.66V292.723V292.786V292.849V292.912V292.975V293.038V293.101V293.164V293.227V293.29V293.353V293.416V293.479V293.543V293.606V293.669V293.733V293.796V293.859V293.923V293.987V294.05V294.114V294.178V294.242V294.306V294.37V294.435V294.499V294.564V294.628V294.693V294.758V294.823V294.888V294.953V295.019V295.084V295.15V295.216V295.282V295.349V295.415V295.482V295.548V295.615V295.683V295.75V295.818V295.886V295.954V296.022V296.09V296.159V296.228V296.297V296.367V296.436V296.506V296.576V296.647V296.717V296.788V296.86V296.931V297.003V297.075V297.147V297.22V297.293V297.366V297.44V297.514V297.588V297.662V297.737V297.812V297.888V297.964V298.04V298.117V298.194V298.271V298.348V298.426V298.505V298.584V298.663V298.742V298.822V298.903V298.983V299.065V299.146V299.228V299.31V299.393V299.477V299.56V299.644V299.729V299.814V299.899V299.985V300.072V300.158V300.246V300.334V300.422V300.511V300.6V300.69V300.78V300.871V300.962V301.054V301.146V301.239V301.332V301.426V301.52V301.615V301.711V301.807V301.903V302V302.098V302.196V302.295V302.395V302.495V302.595V302.696V302.798V302.901V303.004V303.107V303.211V303.316V303.422V303.528V303.634V303.742V303.85V303.958V304.068V304.178V304.288V304.399V304.511V304.624V304.737V304.851V304.966V305.081V305.197V305.314V305.431V305.549V305.668V305.788V305.908V306.029V306.151V306.273V306.397V306.521V306.645V306.771V306.897V307.024V307.152V307.28V307.41V307.54V307.671V307.803V307.935V308.068V308.203V308.337V308.473V308.61V308.747V308.885V309.024V309.164V309.305V309.447V309.589V309.732V309.877V310.022V310.167V310.314V310.462V310.61V310.76V310.91V311.061V311.213V311.366V311.52V311.675V311.831V311.988V312.145V312.304V312.463V312.624V312.785V312.948V313.111V313.275V313.441V313.607V313.774V313.942V314.111V314.281V314.453V314.625V314.798V314.972V315.147V315.323V315.501V315.679V315.858V316.038V316.22V316.402V316.586V316.77V316.956V317.142V317.33V317.519Z"/>
</svg>