<svg width="992" height="692" viewBox="0 0 992 692" fill="none" xmlns="http://www.w3.org/2000/svg">
<ellipse cx="796.5" cy="570" rx="55.5" ry="53" fill="#F195D5"/>
<rect x="70" y="43" width="57" height="169" fill="#FFAB57"/>
<rect x="749" y="182" width="159" height="46" fill="#FF7A5C"/>
<line x1="18" y1="4.37114e-08" x2="18" y2="128" stroke="black" stroke-width="2"/>
<line x1="59" y1="4.37114e-08" x2="59" y2="128" stroke="black" stroke-width="2"/>
<line x1="101" y1="4.37114e-08" x2="101" y2="128" stroke="black" stroke-width="2"/>
<line y1="61" x2="115" y2="61" stroke="black" stroke-width="2"/>
<line y1="20" x2="115" y2="20" stroke="black" stroke-width="2"/>
<line y1="103" x2="115" y2="103" stroke="black" stroke-width="2"/>
<path d="M879 511L976.861 646.75H781.139L879 511Z" fill="#92D39C"/>
<circle cx="100" cy="561" r="50" fill="#A388EE"/>
<circle cx="774" cy="261" r="4" fill="black"/>
<circle cx="745" cy="261" r="4" fill="black"/>
<circle cx="745" cy="238" r="4" fill="black"/>
<circle cx="774" cy="238" r="4" fill="black"/>
<circle cx="831" cy="261" r="4" fill="black"/>
<circle cx="802" cy="261" r="4" fill="black"/>
<circle cx="802" cy="238" r="4" fill="black"/>
<circle cx="831" cy="238" r="4" fill="black"/>
<circle cx="831" cy="216" r="4" fill="black"/>
<circle cx="802" cy="216" r="4" fill="black"/>
<circle cx="802" cy="193" r="4" fill="black"/>
<circle cx="831" cy="193" r="4" fill="black"/>
<circle cx="774" cy="216" r="4" fill="black"/>
<circle cx="745" cy="216" r="4" fill="black"/>
<circle cx="745" cy="193" r="4" fill="black"/>
<circle cx="774" cy="193" r="4" fill="black"/>
<circle cx="43" cy="641" r="4" fill="black"/>
<circle cx="14" cy="641" r="4" fill="black"/>
<circle cx="14" cy="618" r="4" fill="black"/>
<circle cx="43" cy="618" r="4" fill="black"/>
<circle cx="100" cy="641" r="4" fill="black"/>
<circle cx="71" cy="641" r="4" fill="black"/>
<circle cx="71" cy="618" r="4" fill="black"/>
<circle cx="100" cy="618" r="4" fill="black"/>
<circle cx="100" cy="596" r="4" fill="black"/>
<circle cx="71" cy="596" r="4" fill="black"/>
<circle cx="71" cy="573" r="4" fill="black"/>
<circle cx="100" cy="573" r="4" fill="black"/>
<circle cx="43" cy="596" r="4" fill="black"/>
<circle cx="14" cy="596" r="4" fill="black"/>
<circle cx="14" cy="573" r="4" fill="black"/>
<circle cx="43" cy="573" r="4" fill="black"/>
<rect x="95" y="506" width="10" height="10" fill="black"/>
<rect x="156" y="506" width="10" height="10" fill="black"/>
<rect x="34" y="506" width="10" height="10" fill="black"/>
<line x1="105" y1="510" x2="161" y2="510" stroke="black" stroke-width="2"/>
<line x1="39" y1="510" x2="95" y2="510" stroke="black" stroke-width="2"/>
</svg>
