<svg width="140" height="140" viewBox="0 0 140 140" fill="none" xmlns="http://www.w3.org/2000/svg">
<g clip-path="url(#clip0_201_6412)">
<path d="M128.2 84.113C128.127 84.9089 128.236 85.2026 128.146 85.5032C117.825 103.985 102.747 116.772 82.0613 122.109C76.8411 123.47 71.3767 123.45 65.9734 122.239C54.3687 119.743 46.1161 110.396 45.0358 98.6333C44.4379 92.5059 44.938 86.5407 48.1368 81.0821C51.0012 80.5916 53.8691 80.2005 56.5289 79.5185C60.8625 78.3855 64.3602 75.9904 66.4103 71.8583C68.0002 68.8316 67.903 65.8607 66.2634 64.3281C64.1113 62.3161 61.3331 62.4075 59.0928 63.7693C55.9761 65.6561 53.0704 67.9322 50.3667 70.3014C48.6292 71.8453 47.2055 73.8749 45.7755 75.7064C34.5076 74.3895 29.3978 63.948 33.6466 51.1183C35.2213 50.6702 36.8953 50.2188 38.4667 49.6717C44.2563 47.4993 48.6017 43.6886 50.4908 37.678C51.2103 35.3741 51.4267 32.8883 49.2783 30.9757C47.642 29.542 44.8636 29.633 42.1371 31.3086C37.8553 34.0265 34.9057 37.9898 32.3626 42.2371C31.5182 43.752 30.6737 45.2668 29.9285 46.7784C12.4988 45.3659 -0.314424 30.2192 6.13241 14.7397C4.84567 14.8809 3.75091 14.8176 3.16851 15.2332C2.49011 15.7512 2.12886 16.8536 1.95958 17.7515C0.647431 26.2219 1.89578 34.0136 8.25862 40.2499C12.982 44.9535 18.6457 48.04 25.0676 50.0111C25.9704 50.2789 26.8732 50.5469 27.7792 50.9138C27.8784 50.9105 27.9841 51.1053 28.2948 51.4918C28.2247 52.3863 28.2604 53.4758 28.0976 54.5717C26.4481 67.9114 30.2472 74.7271 42.8517 80.462C42.4937 81.6636 42.1422 83.0631 41.6882 84.3669C39.3578 92.0772 39.409 99.7101 42.2417 107.35C46.821 119.792 57.9025 127.559 71.6253 128.003C79.0835 128.254 86.186 126.733 93.0443 123.832C109.6 116.746 122.447 105.618 130.555 89.2907C131.025 88.4823 131.393 87.5781 131.863 86.7696C131.959 86.6669 132.154 86.5615 132.74 86.245C133.644 89.5864 133.45 92.7656 133.355 95.9415C133.357 99.0147 133.163 102.194 133.074 105.568C135.645 105.186 136.592 103.767 137.132 102.064C137.662 100.064 138.391 98.0568 138.426 96.0727C138.449 90.7181 138.37 85.2677 137.894 79.8299C137.457 75.581 135.136 74.4672 131.725 76.4627C124.515 80.7636 117.308 85.1635 110.101 89.5638C108.933 90.2961 107.97 91.2197 106.616 92.3548C108.861 94.1652 110.423 93.3206 111.888 92.5786C117.156 89.6302 122.434 86.9787 128.2 84.113ZM46.3987 34.0443C45.7293 40.9073 41.5026 45.309 35.3602 45.8075C38.1879 41.1542 40.7245 36.7087 46.3987 34.0443ZM62.8748 67.0169C61.6767 72.9054 57.7983 75.8088 51.7257 75.4126C54.778 71.545 57.6482 68.1792 62.8748 67.0169Z" fill="#0D1927"/>
</g>
<defs>
<clipPath id="clip0_201_6412">
<rect width="134.691" height="134.691" fill="white" transform="matrix(0.0327097 0.999465 0.999465 -0.0327097 0.879883 5.28564)"/>
</clipPath>
</defs>
</svg>
